<svg width="0" height="0" xmlns="http://www.w3.org/2000/svg" xmlns:xlink="http://www.w3.org/1999/xlink" viewBox="0 0 224 223.327">
  <defs>
    <clipPath transform="scale(0.004464285714 0.004477738921)" clipPathUnits="objectBoundingBox" id="player-card-body">
      <path d="M112,232h0v-.436a56.336,56.336,0,0,1-6.243-.867L11.705,211.083a19.138,19.138,0,0,0-2.875-.326,2.71,2.71,0,0,0-.83.1,17.275,17.275,0,0,0-2.646,1.489L0,216V32L6.122,40.48A8.46,8.46,0,0,0,8,42.323a1.582,1.582,0,0,0,.725.131,10.619,10.619,0,0,0,2.5-.458L105.274,10.27A35.122,35.122,0,0,1,112,8.673a35.3,35.3,0,0,1,6.728,1.6L212.779,42a10.687,10.687,0,0,0,2.5.458,1.591,1.591,0,0,0,.725-.131,8.583,8.583,0,0,0,1.878-1.842L224,32V216l-5.354-3.655a17.435,17.435,0,0,0-2.646-1.49,2.711,2.711,0,0,0-.83-.1,19.365,19.365,0,0,0-2.875.326L118.245,230.7a56.935,56.935,0,0,1-6.243.867Z" transform="translate(0 -8.673)"/>
    </clipPath>
  </defs>
</svg>