<?xml version="1.0" encoding="UTF-8"?>
<svg width="90px" height="40px" viewBox="0 0 90 40" version="1.1" xmlns="http://www.w3.org/2000/svg" xmlns:xlink="http://www.w3.org/1999/xlink">
    <!-- Generator: Sketch 44.1 (41455) - http://www.bohemiancoding.com/sketch -->
    <title>webSVG</title>
    <desc>Created with Sketch.</desc>
    <defs>
        <polygon id="path-1" points="0 19.99995 0 0 17.653 0 17.653 39.9999 0 39.9999"></polygon>
        <polygon id="path-3" points="45.946 39.0405 45.946 0.9605 0.3997 0.9605 0.3997 39.0405 45.946 39.0405"></polygon>
    </defs>
    <g id="Page-1" stroke="none" stroke-width="1" fill="none" fill-rule="evenodd">
        <g id="webSVG">
            <g id="Page-1" transform="translate(11.000000, 0.000000)">
                <g id="Group-3">
                    <mask id="mask-2" fill="white">
                        <use xlink:href="#path-1"></use>
                    </mask>
                    <g id="Clip-2"></g>
                    <path d="M17.653,4.1599 L17.653,35.8939 C17.653,38.1869 15.787,39.9999 13.493,39.9999 L4.16,39.9999 C1.866,39.9999 0,38.1869 0,35.8939 L0,4.1599 C0,1.8669 1.866,-0.0001 4.16,-0.0001 L13.547,-0.0001 C15.787,-0.0001 17.653,1.8669 17.653,4.1599" id="Fill-1" fill="#FFFFFF" mask="url(#mask-2)"></path>
                </g>
                <path d="M13.5461,39.0403 L4.1601,39.0403 C2.4001,39.0403 0.9601,37.6533 0.9601,35.8943 L0.9601,4.1603 C0.9601,2.4003 2.4001,0.9603 4.1601,0.9603 L9.4931,0.9603 C8.4801,1.3863 8.3191,1.8133 8.2661,3.2533 C8.1061,3.3073 7.7331,3.0933 7.8931,4.0003 C7.8931,4.0003 7.9461,4.5863 8.1601,4.4803 C7.9461,5.9733 8.2131,6.1333 6.6131,6.1863 L6.5601,6.2933 C4.9601,6.4533 4.4801,6.2403 3.1461,8.9603 C3.1461,8.9603 2.7731,9.8133 2.6661,10.1333 C2.3461,10.8273 1.5461,12.3733 1.3331,13.3863 C1.2261,13.7073 1.0671,13.8133 1.2791,14.2933 C1.6001,14.9863 1.0671,15.1463 2.8791,15.0933 L2.8791,15.5193 C2.8791,15.5193 2.4001,15.9463 2.2931,16.1603 C2.1861,16.4263 1.9201,17.6533 1.9201,18.2403 C1.9731,19.7863 3.2001,21.0663 3.5731,22.5603 L4.4261,22.7203 C4.8531,23.7333 6.8791,26.6133 7.3061,26.9863 C7.4131,27.2533 7.9461,27.5733 8.2131,27.9463 C8.4801,28.1603 9.9201,29.7603 11.6261,30.7203 C11.6261,30.7203 11.9461,31.3073 12.0531,31.7863 C11.5201,32.2133 12.5861,33.0663 12.9601,34.4533 C12.9601,34.6663 12.6401,34.8263 13.1201,35.3073 C13.0671,37.3873 12.4801,38.5073 13.5461,39.0403" id="Fill-4" fill="#1D428A"></path>
                <path d="M10.1862,6.72 C10.0262,6.614 10.0792,6.4 10.1862,6.293 C10.4532,6.24 10.7722,5.707 11.0392,5.12 C11.2522,5.12 11.3062,4.907 11.4132,4.8 C11.6262,4.427 11.8932,4.107 11.5732,3.893 C12.2662,2.614 11.7862,1.707 11.4132,1.707 C11.2522,1.387 10.9862,1.174 10.5062,0.96 L13.5462,0.96 C15.2522,0.96 16.6922,2.4 16.6922,4.16 L16.6922,19.467 C16.5862,19.253 16.4792,19.04 16.3192,18.827 C16.3192,18.4 15.8932,18.4 15.7322,18.24 C15.6262,18.134 15.8392,18.027 15.0932,17.866 C14.9332,17.76 14.8262,16.64 14.8262,16.64 C14.6662,15.893 14.3992,15.36 14.0262,14.56 C13.8122,14.187 13.7062,12.907 13.4932,12.267 C13.6522,9.333 12.6922,8.427 11.9462,7.947 C11.6262,7.787 11.5192,7.627 11.1992,7.467 L11.1992,7.36 C10.9862,7.147 10.5062,6.933 10.1862,6.72 L10.1862,6.72 Z M16.6922,35.894 C16.6922,37.493 15.5192,38.774 14.0262,39.04 L13.9732,39.04 C15.3592,38.187 14.5062,36.586 14.2392,35.626 C14.2392,35.574 14.2922,35.52 14.2922,35.467 C14.3992,35.36 14.2392,35.04 14.2392,35.04 C14.0792,34.933 14.0262,34.133 13.9192,33.76 C13.7592,33.173 14.1862,32.16 14.1862,31.786 C14.1862,31.467 13.9192,30.987 13.4392,30.347 C13.3322,30.24 13.0132,27.253 12.6922,26.506 C12.2662,25.493 12.1062,25.654 11.6262,24.373 C11.1992,23.52 11.5192,22.241 10.6132,19.253 L10.8262,19.04 C10.8262,19.04 10.1322,16.48 9.8662,15.787 C9.6522,15.04 9.2262,14.987 9.2262,14.987 C9.2262,14.987 9.2262,14.72 9.2792,14.667 C9.2792,14.507 10.1322,12.373 10.1862,12.32 C10.1862,12.267 11.4132,11.467 11.4132,11.574 C11.5192,12.107 11.9992,14.773 12.1592,15.2 C12.3732,15.627 13.0662,16.96 13.3862,17.76 C12.1592,18.08 11.2522,19.2 11.2522,20.533 C11.2522,22.08 12.4792,23.36 14.0792,23.36 C15.2522,23.36 16.2662,22.614 16.6922,21.547 L16.6922,35.894 Z" id="Fill-6" fill="#C8102E"></path>
                <g id="Group-10" transform="translate(22.000000, 0.000000)">
                    <mask id="mask-4" fill="white">
                        <use xlink:href="#path-3"></use>
                    </mask>
                    <g id="Clip-9"></g>
                    <path d="M37.1457,27.5735 L39.8667,27.5735 L39.4397,20.5865 C39.2797,17.8135 38.8527,9.0135 38.5327,4.2665 L38.3197,4.2665 L37.5727,20.5865 L37.1457,27.5735 Z M40.1327,31.8925 L36.9327,31.8925 L36.5057,39.0405 L31.3337,39.0405 L35.0667,0.9605 L42.3197,0.9605 L45.9467,39.0405 L40.5597,39.0405 L40.1327,31.8925 Z M22.5327,22.5075 L22.5327,34.2395 L23.3857,34.2395 C24.9867,34.2395 25.4657,33.3335 25.4657,31.5195 L25.4657,25.0665 C25.4657,23.1995 24.8787,22.5075 23.1727,22.5075 L22.5327,22.5075 Z M22.5327,5.7605 L22.5327,18.3465 L23.1727,18.3465 C24.9867,18.3465 25.4657,17.6535 25.4657,15.5735 L25.4657,8.3205 C25.4657,6.5595 24.9327,5.7605 23.3857,5.7605 L22.5327,5.7605 Z M17.4127,39.0405 L17.4127,0.9605 L23.7597,0.9605 C27.9727,0.9605 30.5857,3.2535 30.5857,8.5865 L30.5857,14.1865 C30.5857,17.6535 29.5197,19.4135 28.0267,20.3205 C29.5197,21.2805 30.5857,22.9865 30.5857,25.9205 L30.5857,31.4675 C30.5857,36.6935 27.8127,39.0405 23.7597,39.0405 L17.4127,39.0405 Z M4.8797,39.0405 L0.3997,39.0405 L0.3997,0.9605 L7.3327,0.9605 L11.9727,32.3735 C11.2797,24.9065 10.3737,12.8535 10.3737,6.5065 L10.3737,0.9605 L14.8527,0.9605 L14.8527,39.0405 L8.5057,39.0405 L4.2397,8.5335 C4.6127,15.3605 4.8797,23.5195 4.8797,28.1065 L4.8797,39.0405 Z" id="Fill-8" fill="#FFFFFF" mask="url(#mask-4)"></path>
                </g>
            </g>
        </g>
    </g>
</svg>